<svg width="245" height="55" viewBox="0 0 245 55" fill="none" xmlns="http://www.w3.org/2000/svg">
<path d="M33.1699 11.0943L21.4573 45.1786H12.4713L0.806152 11.0943H8.46438L16.9524 35.7972L25.4879 11.0943H33.1699ZM30.0084 45.1786L42.1951 11.0943H50.5647L62.7751 45.1786H54.7613L52.2243 37.9186H40.654L38.0697 45.1786H30.0084ZM42.4085 31.0122H50.375L46.4155 18.8022L42.4085 31.0122ZM82.6253 52.7686H80.1595L80.1121 6.23859H82.6253V52.7686Z" fill="white"/>
<path d="M100.545 8.49356C100.656 8.49356 100.936 8.49356 101.387 8.49356C101.845 8.49356 102.375 8.49356 102.975 8.49356C103.584 8.48571 104.18 8.48571 104.765 8.49356C105.35 8.49356 105.828 8.50142 106.2 8.51714C108.27 8.57999 109.958 8.96892 111.262 9.68392C112.574 10.3911 113.534 11.3654 114.142 12.6068C114.759 13.8404 115.067 15.2861 115.067 16.9439C115.067 18.6568 114.743 20.1575 114.095 21.4461C113.455 22.7346 112.475 23.7403 111.155 24.4632C109.835 25.1782 108.156 25.5357 106.117 25.5357H100.545V8.49356ZM104.599 11.6875V22.3418H106.235C107.018 22.3418 107.761 22.165 108.464 21.8114C109.167 21.4578 109.74 20.8843 110.183 20.0907C110.633 19.2971 110.859 18.2325 110.859 16.8968C110.859 15.7103 110.669 14.7321 110.29 13.9621C109.91 13.1921 109.377 12.6225 108.689 12.2532C108.002 11.8761 107.192 11.6875 106.259 11.6875H104.599ZM121.491 13.3493V25.5357H117.638V13.3493H121.491ZM121.502 8.49356V11.9821H117.626V8.49356H121.502ZM132.032 13.3493V16.0953H129.626V25.5357H125.583V16.0953H123.461V13.3493H125.583V11.6639C125.583 10.6661 125.895 9.88821 126.52 9.33035C127.144 8.77249 128.002 8.49356 129.092 8.49356H132.127L132.151 11.1218H130.633C130.222 11.1218 129.938 11.22 129.78 11.4164C129.622 11.605 129.543 11.935 129.543 12.4064V13.3493H132.032ZM141.479 13.3493V16.0953H139.072V25.5357H135.03V16.0953H132.908V13.3493H135.03V11.6639C135.03 10.6661 135.342 9.88821 135.966 9.33035C136.591 8.77249 137.448 8.49356 138.539 8.49356H141.574L141.597 11.1218H140.08C139.669 11.1218 139.385 11.22 139.226 11.4164C139.068 11.605 138.989 11.935 138.989 12.4064V13.3493H141.479ZM147.724 25.7714C147.195 25.7714 146.657 25.685 146.112 25.5121C145.567 25.3393 145.065 25.0878 144.607 24.7578C144.148 24.42 143.777 24.0114 143.492 23.5321C143.216 23.045 143.077 22.4871 143.077 21.8586V13.3493H147.12V21.3164C147.12 21.7721 147.278 22.1532 147.594 22.4596C147.91 22.7582 148.365 22.9075 148.957 22.9075C149.526 22.9075 149.977 22.7621 150.309 22.4714C150.641 22.1728 150.807 21.78 150.807 21.2928V13.3493H154.814V25.5357H151.802L151.328 23.0725C151.178 23.8346 150.902 24.4121 150.498 24.805C150.095 25.19 149.641 25.4453 149.135 25.5711C148.637 25.7046 148.167 25.7714 147.724 25.7714ZM162.405 25.7714C161.552 25.7714 160.718 25.63 159.904 25.3471C159.09 25.0643 158.395 24.6125 157.818 23.9918C157.241 23.3711 156.869 22.5618 156.703 21.5639H160.165C160.268 21.9803 160.453 22.2986 160.722 22.5186C160.991 22.7386 161.279 22.8878 161.587 22.9664C161.896 23.045 162.16 23.0843 162.382 23.0843C162.967 23.0843 163.441 23.0018 163.804 22.8368C164.168 22.6718 164.35 22.4203 164.35 22.0825C164.35 21.7996 164.235 21.5796 164.006 21.4225C163.785 21.2575 163.397 21.1278 162.844 21.0336L160.852 20.6682C159.73 20.4561 158.821 20.0671 158.126 19.5014C157.438 18.9278 157.091 18.1186 157.083 17.0736C157.075 16.3271 157.276 15.6553 157.687 15.0582C158.098 14.4611 158.703 13.9896 159.501 13.6439C160.299 13.2903 161.279 13.1136 162.441 13.1136C164.03 13.1136 165.294 13.4593 166.235 14.1507C167.175 14.8421 167.649 15.7968 167.657 17.0146H164.338C164.251 16.5982 164.026 16.2839 163.662 16.0718C163.306 15.8518 162.88 15.7418 162.382 15.7418C161.876 15.7418 161.449 15.8282 161.101 16.0011C160.762 16.1661 160.592 16.4175 160.592 16.7553C160.592 17.0146 160.742 17.2228 161.042 17.38C161.342 17.5371 161.821 17.6786 162.477 17.8043L164.267 18.1696C165.002 18.3503 165.598 18.5939 166.057 18.9003C166.515 19.1989 166.867 19.525 167.112 19.8786C167.365 20.2321 167.539 20.5857 167.633 20.9393C167.728 21.285 167.776 21.5914 167.776 21.8586C167.776 22.6993 167.543 23.4103 167.076 23.9918C166.61 24.5732 165.97 25.0171 165.156 25.3236C164.35 25.6221 163.433 25.7714 162.405 25.7714ZM173.911 13.3493V25.5357H170.058V13.3493H173.911ZM173.923 8.49356V11.9821H170.046V8.49356H173.923ZM182.165 25.7714C180.932 25.7714 179.861 25.5121 178.952 24.9936C178.043 24.4671 177.336 23.7364 176.83 22.8014C176.332 21.8586 176.083 20.7625 176.083 19.5132C176.083 18.2403 176.336 17.1246 176.842 16.1661C177.356 15.1996 178.071 14.4493 178.988 13.915C179.904 13.3807 180.967 13.1136 182.177 13.1136C183.425 13.1136 184.5 13.3846 185.401 13.9268C186.31 14.4611 187.009 15.2114 187.499 16.1778C187.989 17.1364 188.234 18.2482 188.234 19.5132C188.234 20.7311 187.989 21.8114 187.499 22.7543C187.017 23.6893 186.322 24.4278 185.413 24.97C184.504 25.5043 183.421 25.7714 182.165 25.7714ZM182.177 22.825C182.73 22.825 183.16 22.6561 183.469 22.3182C183.777 21.9725 183.994 21.5364 184.121 21.01C184.247 20.4757 184.31 19.9336 184.31 19.3836C184.31 18.8414 184.251 18.3111 184.133 17.7925C184.014 17.2739 183.801 16.8496 183.492 16.5196C183.184 16.1818 182.746 16.0129 182.177 16.0129C181.623 16.0129 181.189 16.1778 180.873 16.5078C180.564 16.83 180.343 17.2503 180.209 17.7689C180.082 18.2796 180.019 18.8178 180.019 19.3836C180.019 19.9178 180.078 20.4521 180.197 20.9864C180.323 21.5128 180.541 21.9528 180.849 22.3064C181.165 22.6521 181.608 22.825 182.177 22.825ZM190.292 25.5357V13.3493H194.275V15.0582C194.449 14.7753 194.678 14.4964 194.962 14.2214C195.255 13.9464 195.622 13.7186 196.065 13.5378C196.515 13.3571 197.061 13.2668 197.701 13.2668C198.436 13.2668 199.128 13.4082 199.776 13.6911C200.432 13.9739 200.965 14.4257 201.376 15.0464C201.787 15.6593 201.993 16.4646 201.993 17.4625V25.5357H197.938V17.9928C197.938 17.4586 197.764 17.0578 197.416 16.7907C197.069 16.5157 196.669 16.3782 196.219 16.3782C195.919 16.3782 195.622 16.4371 195.33 16.555C195.037 16.665 194.796 16.8339 194.607 17.0618C194.417 17.2818 194.322 17.5607 194.322 17.8986V25.5357H190.292ZM100.545 49.1071V32.065H106.496L109.839 43.3321L113.218 32.065H119.133V49.1071H115.079V36.4139L111.345 49.1071H108.334L104.599 36.4493V49.1071H100.545ZM125.835 49.3428C125.068 49.3428 124.365 49.1975 123.724 48.9068C123.092 48.6082 122.586 48.1761 122.207 47.6104C121.836 47.0446 121.65 46.3532 121.65 45.5361C121.65 44.2082 122.164 43.1868 123.191 42.4718C124.226 41.7568 125.843 41.3954 128.04 41.3875L129.284 41.3757V40.7511C129.284 40.2718 129.146 39.9143 128.869 39.6786C128.601 39.435 128.174 39.3171 127.589 39.325C127.186 39.3328 126.775 39.4311 126.356 39.6196C125.937 39.8003 125.637 40.1382 125.455 40.6332H122.148C122.195 39.7139 122.468 38.9636 122.966 38.3821C123.472 37.8007 124.139 37.3725 124.969 37.0975C125.807 36.8225 126.744 36.685 127.779 36.685C129.114 36.685 130.174 36.8461 130.956 37.1682C131.738 37.4825 132.299 37.9264 132.639 38.5C132.979 39.0657 133.149 39.7336 133.149 40.5036V49.1071H129.794L129.45 47.0918C129.055 47.9482 128.565 48.5375 127.98 48.8596C127.403 49.1818 126.688 49.3428 125.835 49.3428ZM127.234 46.7618C127.502 46.7618 127.759 46.7146 128.004 46.6203C128.249 46.5261 128.466 46.3964 128.656 46.2314C128.846 46.0586 128.996 45.87 129.107 45.6657C129.217 45.4614 129.277 45.2414 129.284 45.0057V43.3439L128.289 43.3557C127.878 43.3557 127.451 43.4107 127.008 43.5207C126.574 43.6307 126.206 43.8153 125.906 44.0746C125.605 44.3261 125.455 44.6757 125.455 45.1236C125.455 45.6343 125.629 46.035 125.977 46.3257C126.333 46.6164 126.751 46.7618 127.234 46.7618ZM135.926 49.1071V36.9207H139.814V40.0439C140.004 39.4075 140.277 38.8378 140.632 38.335C140.996 37.8243 141.443 37.4236 141.972 37.1328C142.502 36.8343 143.114 36.685 143.81 36.685C143.896 36.685 143.972 36.6889 144.035 36.6968C144.106 36.6968 144.149 36.7046 144.165 36.7203V40.5271C144.126 40.5114 144.074 40.4996 144.011 40.4918C143.956 40.4839 143.896 40.48 143.833 40.48C143.059 40.4014 142.419 40.4132 141.913 40.5153C141.415 40.6175 141.02 40.7825 140.727 41.0103C140.443 41.2382 140.241 41.5093 140.123 41.8236C140.012 42.1378 139.957 42.4796 139.957 42.8489V49.1071H135.926ZM158.096 49.1071H154.136L151.054 44.2396L149.797 45.6186V49.1071H145.767V31.5936H149.797V41.4936L153.733 36.9207H158.001L153.543 41.8707L158.096 49.1071ZM162.471 43.9332C162.463 44.4911 162.55 44.9625 162.732 45.3475C162.914 45.7246 163.17 46.0114 163.502 46.2079C163.834 46.4043 164.222 46.5025 164.664 46.5025C165.17 46.5025 165.617 46.4003 166.004 46.1961C166.399 45.9839 166.687 45.6186 166.869 45.1H170.473C170.339 45.9878 169.983 46.75 169.406 47.3864C168.837 48.015 168.142 48.4982 167.32 48.8361C166.498 49.1739 165.648 49.3428 164.771 49.3428C163.522 49.3428 162.424 49.0875 161.475 48.5768C160.535 48.0661 159.8 47.3471 159.27 46.42C158.749 45.4928 158.488 44.4046 158.488 43.1553C158.488 41.9689 158.729 40.8886 159.211 39.9143C159.693 38.9321 160.389 38.1503 161.297 37.5689C162.206 36.9796 163.301 36.685 164.581 36.685C165.877 36.685 166.96 36.9561 167.829 37.4982C168.699 38.0325 169.351 38.7711 169.785 39.7139C170.228 40.6489 170.449 41.7214 170.449 42.9314V43.9332H162.471ZM162.459 41.6232H166.703C166.703 41.2225 166.624 40.8571 166.466 40.5271C166.308 40.1893 166.071 39.9221 165.755 39.7257C165.439 39.5293 165.048 39.4311 164.581 39.4311C164.154 39.4311 163.783 39.5371 163.467 39.7493C163.151 39.9536 162.902 40.2246 162.72 40.5625C162.538 40.8925 162.451 41.2461 162.459 41.6232ZM180.22 39.6668H177.529L177.541 45.6775C177.541 45.9211 177.577 46.1018 177.648 46.2196C177.727 46.3375 177.834 46.4161 177.968 46.4553C178.102 46.4946 178.268 46.5143 178.466 46.5143H180.244V48.9303C180.078 49.0011 179.821 49.0718 179.474 49.1425C179.126 49.2211 178.616 49.2603 177.944 49.2603C176.767 49.2603 175.854 49.115 175.206 48.8243C174.566 48.5257 174.119 48.1211 173.866 47.6104C173.621 47.0918 173.499 46.5064 173.499 45.8543V39.6668H171.507V36.9207H173.641L174.672 33.1846H177.529V36.8971H180.22V39.6668ZM182.512 52.9021V36.9207H186.554L186.566 38.5C186.772 38.2014 187.013 37.9382 187.289 37.7103C187.574 37.4825 187.878 37.2939 188.202 37.1446C188.526 36.9953 188.862 36.8814 189.21 36.8028C189.565 36.7243 189.917 36.685 190.265 36.685C191.15 36.685 191.94 36.9089 192.636 37.3568C193.331 37.8046 193.881 38.4921 194.284 39.4193C194.687 40.3464 194.888 41.5211 194.888 42.9432C194.888 44.4596 194.659 45.6893 194.201 46.6321C193.742 47.5671 193.13 48.2546 192.363 48.6946C191.604 49.1268 190.767 49.3428 189.85 49.3428C189.526 49.3428 189.206 49.2996 188.89 49.2132C188.574 49.1346 188.273 49.0129 187.989 48.8479C187.704 48.6828 187.44 48.4864 187.195 48.2586C186.95 48.0229 186.732 47.7518 186.542 47.4453V52.9021H182.512ZM188.83 46.4436C189.463 46.4436 190.004 46.1686 190.455 45.6186C190.905 45.0686 191.13 44.1846 191.13 42.9668C191.13 41.8825 190.909 41.0418 190.466 40.4446C190.032 39.8475 189.486 39.5489 188.83 39.5489C188.048 39.5489 187.471 39.8828 187.1 40.5507C186.728 41.2107 186.542 42.0161 186.542 42.9668C186.542 43.5482 186.622 44.1061 186.78 44.6404C186.946 45.1746 187.195 45.6107 187.526 45.9486C187.866 46.2786 188.301 46.4436 188.83 46.4436ZM201.216 49.3428C200.197 49.3428 199.395 49.2289 198.81 49.0011C198.233 48.7732 197.81 48.4786 197.541 48.1171C197.273 47.7478 197.103 47.3393 197.032 46.8914C196.968 46.4436 196.937 45.9996 196.937 45.5596V31.5936H200.884V45.0411C200.884 45.4104 200.971 45.7325 201.145 46.0075C201.319 46.2746 201.694 46.4436 202.271 46.5143L202.805 46.5496V49.0128C202.552 49.0993 202.291 49.1739 202.022 49.2368C201.754 49.3075 201.485 49.3428 201.216 49.3428ZM208.424 49.3428C207.657 49.3428 206.954 49.1975 206.314 48.9068C205.682 48.6082 205.176 48.1761 204.796 47.6104C204.425 47.0446 204.239 46.3532 204.239 45.5361C204.239 44.2082 204.753 43.1868 205.78 42.4718C206.816 41.7568 208.432 41.3954 210.629 41.3875L211.874 41.3757V40.7511C211.874 40.2718 211.735 39.9143 211.459 39.6786C211.19 39.435 210.763 39.3171 210.178 39.325C209.775 39.3328 209.364 39.4311 208.946 39.6196C208.527 39.8003 208.226 40.1382 208.045 40.6332H204.737C204.785 39.7139 205.057 38.9636 205.555 38.3821C206.061 37.8007 206.729 37.3725 207.559 37.0975C208.396 36.8225 209.333 36.685 210.368 36.685C211.704 36.685 212.763 36.8461 213.545 37.1682C214.328 37.4825 214.889 37.9264 215.229 38.5C215.568 39.0657 215.738 39.7336 215.738 40.5036V49.1071H212.383L212.04 47.0918C211.645 47.9482 211.155 48.5375 210.57 48.8596C209.993 49.1818 209.277 49.3428 208.424 49.3428ZM209.823 46.7618C210.092 46.7618 210.348 46.7146 210.593 46.6203C210.838 46.5261 211.056 46.3964 211.245 46.2314C211.435 46.0586 211.585 45.87 211.696 45.6657C211.807 45.4614 211.866 45.2414 211.874 45.0057V43.3439L210.878 43.3557C210.467 43.3557 210.04 43.4107 209.598 43.5207C209.163 43.6307 208.795 43.8153 208.495 44.0746C208.195 44.3261 208.045 44.6757 208.045 45.1236C208.045 45.6343 208.218 46.035 208.566 46.3257C208.922 46.6164 209.341 46.7618 209.823 46.7618ZM223.934 36.685C225.017 36.685 225.945 36.9128 226.72 37.3686C227.494 37.8164 228.091 38.4175 228.51 39.1718C228.937 39.9182 229.17 40.7354 229.209 41.6232H225.89C225.851 41.3482 225.76 41.0614 225.617 40.7629C225.483 40.4643 225.282 40.2129 225.013 40.0086C224.744 39.7964 224.392 39.6903 223.958 39.6903C223.254 39.6903 222.685 39.9693 222.251 40.5271C221.824 41.0771 221.61 41.91 221.61 43.0257C221.61 44.1257 221.832 44.9861 222.274 45.6068C222.717 46.2275 223.306 46.5378 224.041 46.5378C224.467 46.5378 224.811 46.4239 225.072 46.1961C225.341 45.9682 225.542 45.705 225.677 45.4064C225.811 45.1078 225.898 44.8446 225.937 44.6168H229.15C229.126 45.4732 228.897 46.2589 228.463 46.9739C228.036 47.6889 227.439 48.2625 226.672 48.6946C225.906 49.1268 224.993 49.3428 223.934 49.3428C222.78 49.3428 221.745 49.0875 220.828 48.5768C219.919 48.0582 219.2 47.3275 218.67 46.3846C218.141 45.4418 217.876 44.3378 217.876 43.0728C217.876 41.8078 218.133 40.7 218.647 39.7493C219.16 38.7907 219.872 38.0403 220.781 37.4982C221.697 36.9561 222.749 36.685 223.934 36.685ZM234.734 43.9332C234.726 44.4911 234.813 44.9625 234.995 45.3475C235.176 45.7246 235.433 46.0114 235.765 46.2079C236.097 46.4043 236.484 46.5025 236.927 46.5025C237.433 46.5025 237.879 46.4003 238.267 46.1961C238.662 45.9839 238.95 45.6186 239.132 45.1H242.736C242.601 45.9878 242.246 46.75 241.669 47.3864C241.1 48.015 240.404 48.4982 239.582 48.8361C238.76 49.1739 237.911 49.3428 237.034 49.3428C235.785 49.3428 234.686 49.0875 233.738 48.5768C232.798 48.0661 232.062 47.3471 231.533 46.42C231.011 45.4928 230.751 44.4046 230.751 43.1553C230.751 41.9689 230.992 40.8886 231.474 39.9143C231.956 38.9321 232.651 38.1503 233.56 37.5689C234.469 36.9796 235.564 36.685 236.844 36.685C238.14 36.685 239.223 36.9561 240.092 37.4982C240.962 38.0325 241.614 38.7711 242.048 39.7139C242.491 40.6489 242.712 41.7214 242.712 42.9314V43.9332H234.734ZM234.722 41.6232H238.966C238.966 41.2225 238.887 40.8571 238.729 40.5271C238.571 40.1893 238.334 39.9221 238.018 39.7257C237.701 39.5293 237.31 39.4311 236.844 39.4311C236.417 39.4311 236.046 39.5371 235.73 39.7493C235.413 39.9536 235.165 40.2246 234.983 40.5625C234.801 40.8925 234.714 41.2461 234.722 41.6232Z" fill="white"/>
</svg>
