<svg width="11" height="20" viewBox="0 0 11 20" fill="none" xmlns="http://www.w3.org/2000/svg">
<path d="M7.99108 9.11719L3.86608 7.88281C3.38865 7.74219 3.05636 7.28516 3.05636 6.77734C3.05636 6.14062 3.56053 5.625 4.1831 5.625H6.71539C7.18136 5.625 7.63969 5.76953 8.02164 6.03516C8.25463 6.19531 8.56782 6.15625 8.76643 5.95703L10.0956 4.62891C10.3668 4.35938 10.3286 3.91016 10.0268 3.67188C9.09108 2.92188 7.92233 2.50391 6.72303 2.5V0.625C6.72303 0.28125 6.44803 0 6.11192 0H4.88969C4.55358 0 4.27858 0.28125 4.27858 0.625V2.5H4.1831C1.75011 2.5 -0.205444 4.63672 0.019903 7.17188C0.18032 8.97266 1.52476 10.4375 3.2206 10.9453L7.13553 12.1172C7.61296 12.2617 7.94525 12.7148 7.94525 13.2227C7.94525 13.8594 7.44108 14.375 6.81851 14.375H4.28622C3.82025 14.375 3.36192 14.2305 2.97997 13.9648C2.74699 13.8047 2.43379 13.8438 2.23518 14.043L0.906014 15.3711C0.634834 15.6406 0.673028 16.0898 0.974764 16.3281C1.91053 17.0781 3.07928 17.4961 4.27858 17.5V19.375C4.27858 19.7188 4.55358 20 4.88969 20H6.11192C6.44803 20 6.72303 19.7188 6.72303 19.375V17.4922C8.50289 17.457 10.172 16.375 10.7602 14.6523C11.5814 12.2461 10.2025 9.77734 7.99108 9.11719Z" fill="#A9AEB1"/>
</svg>

