<svg xmlns="http://www.w3.org/2000/svg" viewBox="0 0 20.82 36.88"><title>Asset 8</title><g id="Layer_2" data-name="Layer 2"><g id="Layer_3" data-name="Layer 3"><path d="M20.46,26.74a8.07,8.07,0,0,1-6.91,5.48l-.82.1v3.42a1.14,1.14,0,0,1-1.14,1.14H9.25a1.14,1.14,0,0,1-1.14-1.14v-3.4c-.54-.05-1.06-.12-1.58-.2a10.07,10.07,0,0,1-3.16-1A9.69,9.69,0,0,1,1.81,30a1.07,1.07,0,0,1-.06-1.59l2.56-2.53a1.07,1.07,0,0,1,1.33-.14,8.7,8.7,0,0,0,1,.56,2.68,2.68,0,0,0,1.08.22h5.33a1.44,1.44,0,0,0,.51-.09l.21-.09a2.21,2.21,0,0,0,1.24-2.09c0-1.62-1.54-1.94-2.83-2.28-1.8-.47-3.59-1-5.38-1.53A10,10,0,0,1,2.38,18,8,8,0,0,1,.23,14.17,7.6,7.6,0,0,1,.44,9.74,7.88,7.88,0,0,1,2.83,6.47,8.27,8.27,0,0,1,8.11,4.59V1.22A1.22,1.22,0,0,1,9.33,0h2.18a1.22,1.22,0,0,1,1.22,1.22V4.61A12.35,12.35,0,0,1,15.35,5,10.69,10.69,0,0,1,19,6.78a1.13,1.13,0,0,1,.12,1.71L16.56,11a1,1,0,0,1-1.26.15,7.48,7.48,0,0,0-1.61-.72,2.69,2.69,0,0,0-.84-.14H8a2.3,2.3,0,0,0-1.41.47,2,2,0,0,0-.74,1.12,2.2,2.2,0,0,0,.88,2.35,11.52,11.52,0,0,0,2.87,1c2,.62,4,1,6,1.72a7.77,7.77,0,0,1,2.65,1.55A9.32,9.32,0,0,1,20,20.93,7.58,7.58,0,0,1,20.46,26.74Z"/></g></g></svg>