<svg width="22" height="38" viewBox="0 0 22 38" fill="none" xmlns="http://www.w3.org/2000/svg">
<path d="M16.0665 17.4629C18.1863 18.0892 19.7761 19.4141 20.836 21.4375C21.9441 23.4609 22.1127 25.5566 21.3419 27.7246C20.7638 29.3145 19.7761 30.5911 18.379 31.5547C16.9819 32.4701 15.4161 32.9518 13.6817 33V36.4688C13.6817 36.806 13.5613 37.071 13.3204 37.2637C13.1277 37.5046 12.8627 37.625 12.5255 37.625H10.213C9.87575 37.625 9.58668 37.5046 9.3458 37.2637C9.15309 37.071 9.05674 36.806 9.05674 36.4688V33C6.74424 33 4.67262 32.2773 2.84189 30.832C2.55283 30.5911 2.38421 30.3021 2.33603 29.9648C2.28786 29.6276 2.4083 29.3385 2.69736 29.0977L5.15439 26.6406C5.63616 26.207 6.11793 26.1589 6.5997 26.4961C7.32236 26.9779 8.14137 27.2188 9.05674 27.2188H13.8263C14.4526 27.2188 14.9584 27.026 15.3438 26.6406C15.7774 26.207 15.9942 25.6771 15.9942 25.0508C15.9942 23.9909 15.4884 23.3164 14.4767 23.0273L7.0333 20.8594C5.39528 20.3776 4.02223 19.5104 2.91416 18.2578C1.80608 17.0052 1.15569 15.5599 0.962986 13.9219C0.770278 11.5612 1.44476 9.53776 2.98642 7.85156C4.57627 6.11719 6.55153 5.25 8.9122 5.25H9.05674V1.78125C9.05674 1.44401 9.15309 1.17904 9.3458 0.986328C9.58668 0.745443 9.87575 0.625 10.213 0.625H12.5255C12.8627 0.625 13.1277 0.745443 13.3204 0.986328C13.5613 1.17904 13.6817 1.44401 13.6817 1.78125V5.25C15.9942 5.25 18.0659 5.97266 19.8966 7.41797C20.1856 7.65885 20.3543 7.94792 20.4024 8.28516C20.4506 8.6224 20.3302 8.91146 20.0411 9.15234L17.5841 11.6094C17.1023 12.043 16.6205 12.0911 16.1388 11.7539C15.4161 11.2721 14.5971 11.0312 13.6817 11.0312H8.9122C8.2859 11.0312 7.75595 11.248 7.32236 11.6816C6.93694 12.0671 6.74424 12.5729 6.74424 13.1992C6.74424 13.6328 6.88877 14.0423 7.17783 14.4277C7.46689 14.8132 7.82822 15.0781 8.26181 15.2227L16.0665 17.4629Z" fill="#002A5C"/>
</svg>
