<svg width="23" height="20" viewBox="0 0 23 20" fill="none" xmlns="http://www.w3.org/2000/svg">
<path d="M15.7266 3.25L19.25 6.77344C19.3984 6.92187 19.3984 7.16406 19.25 7.3125L10.7188 15.8438L7.09375 16.2461C6.60938 16.3008 6.19922 15.8906 6.25391 15.4062L6.65625 11.7812L15.1875 3.25C15.3359 3.10156 15.5781 3.10156 15.7266 3.25ZM22.0547 2.35547L20.1484 0.449219C19.5547 -0.144531 18.5898 -0.144531 17.9922 0.449219L16.6094 1.83203C16.4609 1.98047 16.4609 2.22266 16.6094 2.37109L20.1328 5.89453C20.2812 6.04297 20.5234 6.04297 20.6719 5.89453L22.0547 4.51172C22.6484 3.91406 22.6484 2.94922 22.0547 2.35547ZM15 13.5234V17.5H2.5V5H11.4766C11.6016 5 11.7188 4.94922 11.8086 4.86328L13.3711 3.30078C13.668 3.00391 13.457 2.5 13.0391 2.5H1.875C0.839844 2.5 0 3.33984 0 4.375V18.125C0 19.1602 0.839844 20 1.875 20H15.625C16.6602 20 17.5 19.1602 17.5 18.125V11.9609C17.5 11.543 16.9961 11.3359 16.6992 11.6289L15.1367 13.1914C15.0508 13.2812 15 13.3984 15 13.5234Z" fill="black"/>
</svg>
