<svg width="31" height="44" viewBox="0 0 31 44" fill="none" xmlns="http://www.w3.org/2000/svg">
<path d="M19.2306 40.5818L19.233 40.5766L28.7114 20.4222C28.7115 20.4219 28.7117 20.4215 28.7118 20.4212C29.4807 18.7941 29.6667 16.9816 29.6667 15.3333C29.6667 7.41126 23.2554 1 15.3333 1C7.41126 1 1 7.41126 1 15.3333C1 16.9817 1.18595 18.7942 1.9549 20.4213C1.95503 20.4216 1.95517 20.4219 1.9553 20.4222L11.4574 40.5717C12.1566 42.1023 13.7299 43 15.3333 43C16.9432 43 18.507 42.0978 19.2306 40.5818Z" fill="#D83933" stroke="white" stroke-width="2"/>
<line x1="11" y1="19.5858" x2="18.5858" y2="12" stroke="white" stroke-width="2" stroke-linecap="round"/>
<line x1="11.4142" y1="12" x2="19" y2="19.5858" stroke="white" stroke-width="2" stroke-linecap="round"/>
</svg>
