<svg width="29" height="42" viewBox="0 0 29 42" fill="none" xmlns="http://www.w3.org/2000/svg">
  <path d="M17.7794 39.3664L17.7806 39.3638L27.2593 19.2085C27.2595 19.2082 27.2596 19.2079 27.2598 19.2076C27.9826 17.678 28.1667 15.9516 28.1667 14.3333C28.1667 6.6874 21.9793 0.5 14.3333 0.5C6.6874 0.5 0.5 6.6874 0.5 14.3333C0.5 15.9518 0.684118 17.6783 1.40714 19.2081C1.4072 19.2082 1.40727 19.2083 1.40734 19.2085L10.9094 39.3579C10.9099 39.3591 10.9104 39.3602 10.9109 39.3613C11.5209 40.6996 12.9066 41.5 14.3333 41.5C15.7633 41.5 17.1441 40.6974 17.7794 39.3664Z" fill="#216e1f" stroke="white"/>
</svg>