<svg width="30" height="42" viewBox="0 0 30 42" fill="none" xmlns="http://www.w3.org/2000/svg">
<path d="M18.4473 39.3664L18.4486 39.3638L27.9273 19.2085C27.9274 19.2082 27.9276 19.2079 27.9277 19.2076C28.6506 17.678 28.8346 15.9516 28.8346 14.3333C28.8346 6.6874 22.6472 0.5 15.0013 0.5C7.35537 0.5 1.16797 6.6874 1.16797 14.3333C1.16797 15.9518 1.35209 17.6783 2.07511 19.2081C2.07517 19.2082 2.07524 19.2083 2.07531 19.2085L11.5774 39.3579C11.5779 39.3591 11.5784 39.3602 11.5789 39.3613C12.1889 40.6996 13.5746 41.5 15.0013 41.5C16.4313 41.5 17.8121 40.6974 18.4473 39.3664Z" fill="#A9AEB1" stroke="white"/>
<path d="M21 21L9 9.00001" stroke="white" stroke-width="2" stroke-linecap="round" stroke-linejoin="round"/>
<path d="M21 9L9 21" stroke="white" stroke-width="2" stroke-linecap="round" stroke-linejoin="round"/>
</svg>
