<svg width="29" height="42" viewBox="0 0 29 42" fill="none" xmlns="http://www.w3.org/2000/svg">
<path d="M18.1114 39.3664L18.1126 39.3638L27.5914 19.2085C27.5915 19.2082 27.5916 19.2079 27.5918 19.2076C28.3146 17.678 28.4987 15.9516 28.4987 14.3333C28.4987 6.6874 22.3113 0.5 14.6654 0.5C7.01943 0.5 0.832031 6.6874 0.832031 14.3333C0.832031 15.9518 1.01615 17.6783 1.73917 19.2081C1.73924 19.2082 1.7393 19.2083 1.73937 19.2085L11.2414 39.3579C11.2419 39.3591 11.2424 39.3602 11.243 39.3613C11.853 40.6996 13.2387 41.5 14.6654 41.5C16.0953 41.5 17.4762 40.6974 18.1114 39.3664Z" fill="#ddaa01" stroke="white"/>
<path d="M17 4L4 17" stroke="white" stroke-width="2" stroke-linecap="round" stroke-linejoin="round"/>
<path d="M21 26L13 34" stroke="white" stroke-width="2" stroke-linecap="round" stroke-linejoin="round"/>
<path d="M22 8L7 23" stroke="white" stroke-width="2" stroke-linecap="round" stroke-linejoin="round"/>
<path d="M25 14L10 29" stroke="white" stroke-width="2" stroke-linecap="round" stroke-linejoin="round"/>
</svg>
