<svg width="144" height="128" viewBox="0 0 190 169" fill="none" xmlns="http://www.w3.org/2000/svg">
  <g clip-path="url(#clip0)">
    <path d="M184.633 129.375L140.102 162.203C134.194 166.532 127.064 168.874 119.74 168.889H5.27778C3.88096 168.879 2.54405 168.32 1.55633 167.333C0.568607 166.345 0.00950543 165.008 0 163.611L0 131.944C0.00950543 130.548 0.568607 129.211 1.55633 128.223C2.54405 127.235 3.88096 126.676 5.27778 126.667H23.5422L38.8807 114.218C45.7973 108.612 54.4304 105.554 63.3333 105.556H116.111C117.648 105.556 119.167 105.891 120.561 106.538C121.956 107.185 123.192 108.129 124.185 109.302C125.178 110.476 125.903 111.852 126.31 113.334C126.717 114.816 126.796 116.37 126.541 117.886C125.677 123.088 120.802 126.667 115.527 126.667H89.7222C88.3225 126.667 86.98 127.223 85.9903 128.212C85.0005 129.202 84.4444 130.545 84.4444 131.944C84.4444 133.344 85.0005 134.687 85.9903 135.676C86.98 136.666 88.3225 137.222 89.7222 137.222H129.5L168.975 108.135C170.366 107.061 171.957 106.276 173.655 105.826C175.354 105.375 177.125 105.269 178.865 105.512C180.606 105.755 182.28 106.344 183.789 107.243C185.299 108.142 186.614 109.334 187.657 110.748C188.7 112.162 189.45 113.771 189.863 115.478C190.276 117.186 190.343 118.96 190.062 120.694C189.78 122.429 189.155 124.089 188.222 125.579C187.29 127.068 186.07 128.357 184.633 129.368V129.375Z" fill="#D4E5FF"/>
    <path d="M131.944 31.6667V52.7778C131.944 54.1775 131.388 55.52 130.399 56.5097C129.409 57.4995 128.066 58.0556 126.667 58.0556H105.556V79.1667C105.556 80.5664 105 81.9088 104.01 82.8986C103.02 83.8884 101.678 84.4444 100.278 84.4444H79.1667C77.7669 84.4444 76.4245 83.8884 75.4347 82.8986C74.4449 81.9088 73.8889 80.5664 73.8889 79.1667V58.0556H52.7778C51.378 58.0556 50.0356 57.4995 49.0458 56.5097C48.0561 55.52 47.5 54.1775 47.5 52.7778V31.6667C47.5 30.2669 48.0561 28.9245 49.0458 27.9347C50.0356 26.9449 51.378 26.3889 52.7778 26.3889H73.8889V5.27778C73.8889 3.87802 74.4449 2.5356 75.4347 1.54583C76.4245 0.55605 77.7669 0 79.1667 0L100.278 0C101.678 0 103.02 0.55605 104.01 1.54583C105 2.5356 105.556 3.87802 105.556 5.27778V26.3889H126.667C128.066 26.3889 129.409 26.9449 130.399 27.9347C131.388 28.9245 131.944 30.2669 131.944 31.6667Z" fill="#81AEFC"/>
  </g>
  <defs>
    <clipPath id="clip0">
      <rect width="190" height="168.889" fill="white"/>
    </clipPath>
  </defs>
</svg>