<svg width="16" height="16" viewBox="0 0 16 16" fill="none" xmlns="http://www.w3.org/2000/svg">
  <path d="M15.75 8C15.75 12.2812 12.2799 15.75 8 15.75C3.72009 15.75 0.25 12.2812 0.25 8C0.25 3.72134 3.72009 0.25 8 0.25C12.2799 0.25 15.75 3.72134 15.75 8ZM8.20797 2.8125C6.50494 2.8125 5.41875 3.52991 4.56581 4.80494C4.45531 4.97012 4.49228 5.19291 4.65066 5.313L5.735 6.13519C5.89766 6.25853 6.12941 6.22919 6.25578 6.06887C6.81403 5.36081 7.19681 4.95022 8.0465 4.95022C8.68491 4.95022 9.47456 5.36109 9.47456 5.98016C9.47456 6.44816 9.08822 6.6885 8.45788 7.04191C7.72275 7.454 6.75 7.96691 6.75 9.25V9.375C6.75 9.58209 6.91791 9.75 7.125 9.75H8.875C9.08209 9.75 9.25 9.58209 9.25 9.375V9.33334C9.25 8.44391 11.8496 8.40687 11.8496 6C11.8496 4.18744 9.96941 2.8125 8.20797 2.8125ZM8 10.5625C7.20734 10.5625 6.5625 11.2073 6.5625 12C6.5625 12.7926 7.20734 13.4375 8 13.4375C8.79266 13.4375 9.4375 12.7926 9.4375 12C9.4375 11.2073 8.79266 10.5625 8 10.5625Z" fill="#1B1B1B"/>
</svg>
