<svg width="15" height="15" viewBox="0 0 15 15" fill="none" xmlns="http://www.w3.org/2000/svg">
<path d="M7.26562 0.109375C5.95703 0.109375 4.74609 0.441406 3.63281 1.10547C2.51953 1.75 1.63086 2.62891 0.966797 3.74219C0.322266 4.85547 0 6.06641 0 7.375C0 8.68359 0.322266 9.89453 0.966797 11.0078C1.63086 12.1211 2.51953 13 3.63281 13.6445C4.74609 14.3086 5.95703 14.6406 7.26562 14.6406C8.57422 14.6406 9.78516 14.3086 10.8984 13.6445C12.0117 13 12.8906 12.1211 13.5352 11.0078C14.1992 9.89453 14.5312 8.68359 14.5312 7.375C14.5312 6.06641 14.1992 4.85547 13.5352 3.74219C12.8906 2.62891 12.0117 1.75 10.8984 1.10547C9.78516 0.441406 8.57422 0.109375 7.26562 0.109375ZM7.26562 2.92188C7.96875 2.92188 8.57422 3.17578 9.08203 3.68359C9.58984 4.19141 9.84375 4.79688 9.84375 5.5C9.84375 6.20312 9.58984 6.80859 9.08203 7.31641C8.57422 7.82422 7.96875 8.07812 7.26562 8.07812C6.5625 8.07812 5.95703 7.82422 5.44922 7.31641C4.94141 6.80859 4.6875 6.20312 4.6875 5.5C4.6875 4.79688 4.94141 4.19141 5.44922 3.68359C5.95703 3.17578 6.5625 2.92188 7.26562 2.92188ZM7.26562 13C6.42578 13 5.625 12.8242 4.86328 12.4727C4.12109 12.1211 3.48633 11.6328 2.95898 11.0078C3.25195 10.4805 3.65234 10.0605 4.16016 9.74805C4.66797 9.41602 5.23438 9.25 5.85938 9.25C5.91797 9.25 5.98633 9.25977 6.06445 9.2793C6.47461 9.41602 6.875 9.48438 7.26562 9.48438C7.65625 9.48438 8.05664 9.41602 8.4668 9.2793C8.54492 9.25977 8.61328 9.25 8.67188 9.25C9.29688 9.25 9.86328 9.41602 10.3711 9.74805C10.8789 10.0605 11.2793 10.4805 11.5723 11.0078C11.0449 11.6328 10.4004 12.1211 9.63867 12.4727C8.89648 12.8242 8.10547 13 7.26562 13Z" fill="#0076D6"/>
</svg>
