<svg width="39" height="40" viewBox="0 0 39 40" fill="none" xmlns="http://www.w3.org/2000/svg">
<path d="M19.375 0.625C22.8125 0.625 26.0938 1.5625 29.0625 3.28125C32.0312 5 34.375 7.34375 36.0938 10.3125C37.8125 13.2812 38.75 16.5625 38.75 20C38.75 23.5156 37.8125 26.7188 36.0938 29.6875C34.375 32.6562 32.0312 35.0781 29.0625 36.7969C26.0938 38.5156 22.8125 39.375 19.375 39.375C15.8594 39.375 12.6562 38.5156 9.6875 36.7969C6.71875 35.0781 4.29688 32.6562 2.57812 29.6875C0.859375 26.7188 0 23.5156 0 20C0 16.5625 0.859375 13.2812 2.57812 10.3125C4.29688 7.34375 6.71875 5 9.6875 3.28125C12.6562 1.5625 15.8594 0.625 19.375 0.625ZM19.375 8.125C17.5 8.125 15.8594 8.82812 14.5312 10.1562C13.125 11.5625 12.5 13.125 12.5 15C12.5 16.875 13.125 18.5156 14.5312 19.8438C15.8594 21.25 17.5 21.875 19.375 21.875C21.25 21.875 22.8125 21.25 24.2188 19.8438C25.5469 18.5156 26.25 16.875 26.25 15C26.25 13.125 25.5469 11.5625 24.2188 10.1562C22.8125 8.82812 21.25 8.125 19.375 8.125ZM19.375 35C21.5625 35 23.6719 34.5312 25.7031 33.5938C27.7344 32.6562 29.4531 31.4062 30.8594 29.6875C30.0781 28.2812 28.9844 27.1875 27.6562 26.3281C26.25 25.4688 24.7656 25 23.125 25C22.9688 25 22.7344 25.0781 22.5781 25.0781C21.4844 25.4688 20.3906 25.625 19.375 25.625C18.2812 25.625 17.2656 25.4688 16.1719 25.0781C15.9375 25.0781 15.7812 25 15.625 25C13.9062 25 12.4219 25.4688 11.0938 26.3281C9.6875 27.1875 8.67188 28.2812 7.89062 29.6875C9.29688 31.4062 10.9375 32.6562 12.9688 33.5938C15 34.5312 17.1094 35 19.375 35Z" fill="#0076D6"/>
</svg>
