<svg width="24" height="16" viewBox="0 0 24 16" fill="none" xmlns="http://www.w3.org/2000/svg">
<path d="M5.79028 6.23535C5.34497 6.68066 4.81763 6.90332 4.20825 6.90332C3.59888 6.90332 3.07153 6.68066 2.62622 6.23535C2.18091 5.79004 1.95825 5.2627 1.95825 4.65332C1.95825 4.04395 2.18091 3.5166 2.62622 3.07129C3.07153 2.62598 3.59888 2.40332 4.20825 2.40332C4.81763 2.40332 5.34497 2.62598 5.79028 3.07129C6.2356 3.5166 6.45825 4.04395 6.45825 4.65332C6.45825 5.2627 6.2356 5.79004 5.79028 6.23535ZM21.5403 6.23535C21.095 6.68066 20.5676 6.90332 19.9583 6.90332C19.3489 6.90332 18.8215 6.68066 18.3762 6.23535C17.9309 5.79004 17.7083 5.2627 17.7083 4.65332C17.7083 4.04395 17.9309 3.5166 18.3762 3.07129C18.8215 2.62598 19.3489 2.40332 19.9583 2.40332C20.5676 2.40332 21.095 2.62598 21.5403 3.07129C21.9856 3.5166 22.2083 4.04395 22.2083 4.65332C22.2083 5.2627 21.9856 5.79004 21.5403 6.23535ZM21.0833 8.02832C21.6926 8.02832 22.22 8.25098 22.6653 8.69629C23.1106 9.1416 23.3333 9.66895 23.3333 10.2783V11.4033C23.3333 11.708 23.2161 11.9775 22.9817 12.2119C22.7708 12.4229 22.5129 12.5283 22.2083 12.5283H19.8879C19.8176 11.9893 19.6653 11.4736 19.4309 10.9814C19.1965 10.4893 18.8918 10.0557 18.5168 9.68066C18.1418 9.28223 17.72 8.9541 17.2512 8.69629C17.6965 8.25098 18.2239 8.02832 18.8333 8.02832H21.0833ZM14.8606 6.86816C14.0872 7.6416 13.1614 8.02832 12.0833 8.02832C11.0051 8.02832 10.0793 7.6416 9.30591 6.86816C8.53247 6.09473 8.14575 5.16895 8.14575 4.09082C8.14575 3.0127 8.53247 2.08691 9.30591 1.31348C10.0793 0.540039 11.0051 0.15332 12.0833 0.15332C13.1614 0.15332 14.0872 0.540039 14.8606 1.31348C15.634 2.08691 16.0208 3.0127 16.0208 4.09082C16.0208 5.16895 15.634 6.09473 14.8606 6.86816ZM14.7903 9.15332C15.9153 9.15332 16.8645 9.55176 17.6379 10.3486C18.4348 11.1221 18.8333 12.0713 18.8333 13.1963V14.2158C18.8333 14.6846 18.6692 15.083 18.3411 15.4111C18.0129 15.7393 17.6145 15.9033 17.1458 15.9033H7.02075C6.552 15.9033 6.15356 15.7393 5.82544 15.4111C5.49731 15.083 5.33325 14.6846 5.33325 14.2158V13.1963C5.33325 12.0713 5.71997 11.1221 6.49341 10.3486C7.29028 9.55176 8.25122 9.15332 9.37622 9.15332H9.69263C10.4661 9.52832 11.2629 9.71582 12.0833 9.71582C12.9036 9.71582 13.7004 9.52832 14.4739 9.15332H14.7903ZM6.91528 8.69629C6.21216 9.07129 5.62622 9.59863 5.15747 10.2783C4.68872 10.958 4.39575 11.708 4.27856 12.5283H1.95825C1.65356 12.5283 1.38403 12.4229 1.14966 12.2119C0.938721 11.9775 0.833252 11.708 0.833252 11.4033V10.2783C0.833252 9.66895 1.05591 9.1416 1.50122 8.69629C1.94653 8.25098 2.47388 8.02832 3.08325 8.02832H5.33325C5.94263 8.02832 6.46997 8.25098 6.91528 8.69629Z" fill="black"/>
</svg>
