<svg width="30" height="40" viewBox="0 0 30 40" fill="none" xmlns="http://www.w3.org/2000/svg">
  <mask id="path-1-inside-1" fill="white">
    <path d="M13.4584 39.193C2.10703 22.7368 0 21.0479 0 15C0 6.7157 6.7157 0 15 0C23.2843 0 30 6.7157 30 15C30 21.0479 27.893 22.7368 16.5416 39.193C15.7966 40.2691 14.2033 40.269 13.4584 39.193Z"/>
  </mask>
  <path d="M13.4584 39.193C2.10703 22.7368 0 21.0479 0 15C0 6.7157 6.7157 0 15 0C23.2843 0 30 6.7157 30 15C30 21.0479 27.893 22.7368 16.5416 39.193C15.7966 40.2691 14.2033 40.269 13.4584 39.193Z" fill="#2672DE" stroke="white" stroke-width="1.67756" mask="url(#path-1-inside-1)"/>
</svg>