<svg width="31" height="31" viewBox="0 0 31 31" fill="none" xmlns="http://www.w3.org/2000/svg">
<path d="M29.8242 7.13672C30.1758 8.54297 30.1562 9.96875 29.7656 11.4141C29.375 12.8203 28.6523 14.0703 27.5977 15.1641C26.4258 16.2969 25.0586 17.0391 23.4961 17.3906C21.9336 17.7422 20.4102 17.6641 18.9258 17.1562L6.44531 29.6367C5.70312 30.3789 4.80469 30.75 3.75 30.75C2.73438 30.75 1.85547 30.3789 1.11328 29.6367C0.410156 28.9336 0.0585938 28.0547 0.0585938 27C0.0585938 25.9844 0.429688 25.1055 1.17188 24.3633L13.6523 11.8242C13.1445 10.3789 13.0664 8.875 13.418 7.3125C13.7695 5.71094 14.5117 4.34375 15.6445 3.21094C16.6992 2.15625 17.9492 1.43359 19.3945 1.04297C20.8398 0.652344 22.2656 0.632812 23.6719 0.984375C23.9453 1.0625 24.1016 1.23828 24.1406 1.51172C24.2188 1.74609 24.1602 1.96094 23.9648 2.15625L19.6289 6.55078L20.2734 10.5352L24.2578 11.1797L28.6523 6.84375C28.8477 6.64844 29.0625 6.58984 29.2969 6.66797C29.5703 6.70703 29.7461 6.86328 29.8242 7.13672ZM2.8125 27.9961C3.08594 28.2695 3.41797 28.4062 3.80859 28.4062C4.19922 28.4062 4.53125 28.2695 4.80469 27.9961C5.07812 27.7227 5.21484 27.3906 5.21484 27C5.21484 26.6094 5.07812 26.2773 4.80469 26.0039C4.53125 25.7305 4.19922 25.5938 3.80859 25.5938C3.41797 25.5938 3.08594 25.7305 2.8125 26.0039C2.53906 26.2773 2.40234 26.6094 2.40234 27C2.40234 27.3906 2.53906 27.7227 2.8125 27.9961Z" fill="#002A5C"/>
</svg>
