<svg xmlns="http://www.w3.org/2000/svg" viewBox="0 0 29.8 29.8"><title>Asset 3</title><g id="Layer_2" data-name="Layer 2"><g id="Layer_2-2" data-name="Layer 2"><path id="Small_Wrench" data-name="Small Wrench" d="M29.57,6.38a.69.69,0,0,0-1.16-.33L24,10.37l-3.94-.66-.68-3.94,4.33-4.38A.7.7,0,0,0,23.41.23a8.76,8.76,0,0,0-2-.23,8.36,8.36,0,0,0-8.3,8.44A8.17,8.17,0,0,0,13.55,11L1.08,23.49a3.7,3.7,0,0,0,5.23,5.23L18.77,16.25a8.25,8.25,0,0,0,2.69.45A8.34,8.34,0,0,0,29.8,8.35,8.5,8.5,0,0,0,29.57,6.38ZM3.74,27.47a1.4,1.4,0,1,1,1.4-1.4A1.4,1.4,0,0,1,3.74,27.47Z"/></g></g></svg>