<svg width="20" height="20" viewBox="0 0 20 20" fill="none" xmlns="http://www.w3.org/2000/svg">
<path d="M19.8328 4.26166C19.7453 3.90893 19.3039 3.7894 19.0469 4.04643L16.1422 6.95111L13.4906 6.50932L13.0488 3.85775L15.9535 0.953067C16.2121 0.694473 16.0875 0.253848 15.7324 0.165567C13.8816 -0.293027 11.8438 0.201114 10.3973 1.64721C8.84883 3.19565 8.42266 5.44018 9.06719 7.39721L0.731641 15.7328C-0.244531 16.7089 -0.244531 18.2917 0.731641 19.2679C1.70781 20.2441 3.29063 20.2441 4.2668 19.2679L12.5953 10.9394C14.5531 11.5921 16.7934 11.1613 18.352 9.60268C19.8 8.15463 20.2934 6.11361 19.8328 4.26166ZM2.49961 18.4374C1.98203 18.4374 1.56211 18.0175 1.56211 17.4999C1.56211 16.982 1.98203 16.5624 2.49961 16.5624C3.01719 16.5624 3.43711 16.982 3.43711 17.4999C3.43711 18.0175 3.01719 18.4374 2.49961 18.4374Z" fill="#A9AEB1"/>
</svg>

